# xmcd
#
# Track frame offsets:
#  150
#  13400
#  26127
#  38812
#  50562
#  63387
#  78165
#  91565
#  105302
#  120247
#  134180
#  148890
#  162042
#  179360
#  191215
#  209340
#  227117
#  236337
#  251370
#  269020
#  281672
#  294105
#  309180
#
# Disc length: 4309 seconds
#
# Revision: 0
# Processed by: cddbd v1.4PL0 Copyright (c) Steve Scherf et al.
# Submitted via: AltoMP3_Maker 3.0
#
DISCID=4410d317
DTITLE=Cab Calloway - Minnie The Moocher
DYEAR=1900
DGENRE=
TTITLE0=Nagasaki
TTITLE1=Hoy Hoy
TTITLE2=Hep-Hep The Jumpin' Jive
TTITLE3=Give Baby Give
TTITLE4=I Want To Rock
TTITLE5=Minnie The Moocher
TTITLE6=The Honey Dripper
TTITLE7=The Hi-De-Ho Man
TTITLE8=Jungle Swing
TTITLE9=The Calloway Boogie
TTITLE10=Two Blocks Down Turn Left
TTITLE11=A Chicken Ain't Nothin' But A Bird
TTITLE12=Stormy Weather
TTITLE13=Everybody Eats When They Come To My House
TTITLE14=Afternoon Moon
TTITLE15=This Is Always
TTITLE16=Duck Trot
TTITLE17=That Old Black Magic
TTITLE18=How Big Can You Get
TTITLE19=Hey Now Hey Now
TTITLE20=The Birth Of The Blues
TTITLE21=We The Cats
TTITLE22=Foo A Little Ballyhoo
EXTD=
EXTT0=
EXTT1=
EXTT2=
EXTT3=
EXTT4=
EXTT5=
EXTT6=
EXTT7=
EXTT8=
EXTT9=
EXTT10=
EXTT11=
EXTT12=
EXTT13=
EXTT14=
EXTT15=
EXTT16=
EXTT17=
EXTT18=
EXTT19=
EXTT20=
EXTT21=
EXTT22=
PLAYORDER=
